<?xml version="1.0" encoding="UTF-8" standalone="no"?>
<!DOCTYPE svg PUBLIC "-//W3C//DTD SVG 1.1//EN"
 "http://www.w3.org/Graphics/SVG/1.1/DTD/svg11.dtd">
<!-- Generated by graphviz version 2.47.3 (20210619.1520)
 -->
<!-- Title: dependencies Pages: 1 -->
<svg width="389pt" height="247pt"
 viewBox="0.00 0.00 389.00 246.80" xmlns="http://www.w3.org/2000/svg" xmlns:xlink="http://www.w3.org/1999/xlink">
<g id="graph0" class="graph" transform="scale(1 1) rotate(0) translate(4 242.8)">
<title>dependencies</title>
<polygon fill="white" stroke="transparent" points="-4,4 -4,-242.8 385,-242.8 385,4 -4,4"/>
<text text-anchor="middle" x="190.5" y="-8.2" font-family="sans-serif" font-size="14.00">dependencies</text>
<g id="clust1" class="cluster">
<title>cluster_SharedModule</title>
<polygon fill="none" stroke="black" stroke-dasharray="1,5" points="8,-32.8 8,-230.8 373,-230.8 373,-32.8 8,-32.8"/>
</g>
<g id="clust2" class="cluster">
<title>cluster_SharedModule_declarations</title>
<polygon fill="none" stroke="black" points="16,-40.8 16,-92.8 365,-92.8 365,-40.8 16,-40.8"/>
</g>
<g id="clust6" class="cluster">
<title>cluster_SharedModule_exports</title>
<polygon fill="none" stroke="black" points="91,-170.8 91,-222.8 289,-222.8 289,-170.8 91,-170.8"/>
</g>
<!-- DatepickerPopupComponent -->
<g id="node1" class="node">
<title>DatepickerPopupComponent</title>
<polygon fill="#ffffb3" stroke="black" points="357.02,-84.8 178.98,-84.8 178.98,-48.8 357.02,-48.8 357.02,-84.8"/>
<text text-anchor="middle" x="268" y="-62.6" font-family="Times,serif" font-size="14.00">DatepickerPopupComponent</text>
</g>
<!-- SharedModule -->
<g id="node3" class="node">
<title>SharedModule</title>
<polygon fill="#8dd3c7" stroke="black" points="239.42,-149.8 236.42,-153.8 215.42,-153.8 212.42,-149.8 140.58,-149.8 140.58,-113.8 239.42,-113.8 239.42,-149.8"/>
<text text-anchor="middle" x="190" y="-127.6" font-family="Times,serif" font-size="14.00">SharedModule</text>
</g>
<!-- DatepickerPopupComponent&#45;&gt;SharedModule -->
<g id="edge1" class="edge">
<title>DatepickerPopupComponent&#45;&gt;SharedModule</title>
<path fill="none" stroke="black" d="M208.98,-84.91C208.98,-84.91 208.98,-103.79 208.98,-103.79"/>
<polygon fill="black" stroke="black" points="205.48,-103.79 208.98,-113.79 212.48,-103.79 205.48,-103.79"/>
</g>
<!-- InputTextComponent -->
<g id="node2" class="node">
<title>InputTextComponent</title>
<polygon fill="#ffffb3" stroke="black" points="160.04,-84.8 23.96,-84.8 23.96,-48.8 160.04,-48.8 160.04,-84.8"/>
<text text-anchor="middle" x="92" y="-62.6" font-family="Times,serif" font-size="14.00">InputTextComponent</text>
</g>
<!-- InputTextComponent&#45;&gt;SharedModule -->
<g id="edge2" class="edge">
<title>InputTextComponent&#45;&gt;SharedModule</title>
<path fill="none" stroke="black" d="M150.53,-84.91C150.53,-84.91 150.53,-103.79 150.53,-103.79"/>
<polygon fill="black" stroke="black" points="147.03,-103.79 150.53,-113.79 154.03,-103.79 147.03,-103.79"/>
</g>
<!-- DatepickerPopupComponent  -->
<g id="node4" class="node">
<title>DatepickerPopupComponent </title>
<polygon fill="#fb8072" stroke="black" points="281.02,-214.8 98.98,-214.8 98.98,-178.8 281.02,-178.8 281.02,-214.8"/>
<text text-anchor="middle" x="190" y="-192.6" font-family="Times,serif" font-size="14.00">DatepickerPopupComponent </text>
</g>
<!-- SharedModule&#45;&gt;DatepickerPopupComponent  -->
<g id="edge3" class="edge">
<title>SharedModule&#45;&gt;DatepickerPopupComponent </title>
<path fill="none" stroke="black" stroke-dasharray="5,2" d="M190,-149.91C190,-149.91 190,-168.79 190,-168.79"/>
<polygon fill="black" stroke="black" points="186.5,-168.79 190,-178.79 193.5,-168.79 186.5,-168.79"/>
</g>
</g>
</svg>
