<?xml version="1.0" encoding="UTF-8" standalone="no"?>
<!DOCTYPE svg PUBLIC "-//W3C//DTD SVG 1.1//EN"
 "http://www.w3.org/Graphics/SVG/1.1/DTD/svg11.dtd">
<!-- Generated by graphviz version 2.47.3 (20210619.1520)
 -->
<!-- Title: dependencies Pages: 1 -->
<svg width="2739pt" height="318pt"
 viewBox="0.00 0.00 2739.00 317.80" xmlns="http://www.w3.org/2000/svg" xmlns:xlink="http://www.w3.org/1999/xlink">
<g id="graph0" class="graph" transform="scale(1 1) rotate(0) translate(4 313.8)">
<title>dependencies</title>
<polygon fill="white" stroke="transparent" points="-4,4 -4,-313.8 2735,-313.8 2735,4 -4,4"/>
<text text-anchor="middle" x="1365.5" y="-8.2" font-family="sans-serif" font-size="14.00">dependencies</text>
<g id="clust76" class="cluster">
<title>cluster_SharedModule</title>
<polygon fill="none" stroke="black" stroke-dasharray="1,5" points="1312,-32.8 1312,-233.8 1677,-233.8 1677,-32.8 1312,-32.8"/>
</g>
<g id="clust77" class="cluster">
<title>cluster_SharedModule_declarations</title>
<polygon fill="none" stroke="black" points="1320,-40.8 1320,-92.8 1669,-92.8 1669,-40.8 1320,-40.8"/>
</g>
<g id="clust81" class="cluster">
<title>cluster_SharedModule_exports</title>
<polygon fill="none" stroke="black" points="1320,-173.8 1320,-225.8 1518,-225.8 1518,-173.8 1320,-173.8"/>
</g>
<g id="clust28" class="cluster">
<title>cluster_DashboardModule</title>
<polygon fill="none" stroke="black" stroke-dasharray="1,5" points="1685,-32.8 1685,-160.8 2049,-160.8 2049,-32.8 1685,-32.8"/>
</g>
<g id="clust29" class="cluster">
<title>cluster_DashboardModule_declarations</title>
<polygon fill="none" stroke="black" points="1883,-40.8 1883,-92.8 2041,-92.8 2041,-40.8 1883,-40.8"/>
</g>
<g id="clust31" class="cluster">
<title>cluster_DashboardModule_imports</title>
<polygon fill="none" stroke="black" points="1693,-40.8 1693,-92.8 1875,-92.8 1875,-40.8 1693,-40.8"/>
</g>
<g id="clust63" class="cluster">
<title>cluster_ProfileModule</title>
<polygon fill="none" stroke="black" stroke-dasharray="1,5" points="2405,-32.8 2405,-160.8 2723,-160.8 2723,-32.8 2405,-32.8"/>
</g>
<g id="clust64" class="cluster">
<title>cluster_ProfileModule_declarations</title>
<polygon fill="none" stroke="black" points="2579,-40.8 2579,-92.8 2715,-92.8 2715,-40.8 2579,-40.8"/>
</g>
<g id="clust66" class="cluster">
<title>cluster_ProfileModule_imports</title>
<polygon fill="none" stroke="black" points="2413,-40.8 2413,-92.8 2571,-92.8 2571,-40.8 2413,-40.8"/>
</g>
<g id="clust41" class="cluster">
<title>cluster_LayoutModule</title>
<polygon fill="none" stroke="black" stroke-dasharray="1,5" points="438,-32.8 438,-233.8 896,-233.8 896,-32.8 438,-32.8"/>
</g>
<g id="clust42" class="cluster">
<title>cluster_LayoutModule_declarations</title>
<polygon fill="none" stroke="black" points="446,-40.8 446,-92.8 888,-92.8 888,-40.8 446,-40.8"/>
</g>
<g id="clust47" class="cluster">
<title>cluster_LayoutModule_exports</title>
<polygon fill="none" stroke="black" points="510,-173.8 510,-225.8 674,-225.8 674,-173.8 510,-173.8"/>
</g>
<g id="clust1" class="cluster">
<title>cluster_AppModule</title>
<polygon fill="none" stroke="black" stroke-dasharray="1,5" points="8,-100.8 8,-301.8 430,-301.8 430,-100.8 8,-100.8"/>
</g>
<g id="clust5" class="cluster">
<title>cluster_AppModule_imports</title>
<polygon fill="none" stroke="black" points="278,-108.8 278,-160.8 422,-160.8 422,-108.8 278,-108.8"/>
</g>
<g id="clust2" class="cluster">
<title>cluster_AppModule_declarations</title>
<polygon fill="none" stroke="black" points="16,-108.8 16,-160.8 270,-160.8 270,-108.8 16,-108.8"/>
</g>
<g id="clust7" class="cluster">
<title>cluster_AppModule_bootstrap</title>
<polygon fill="none" stroke="black" points="217,-241.8 217,-293.8 341,-293.8 341,-241.8 217,-241.8"/>
</g>
<g id="clust50" class="cluster">
<title>cluster_ProductsModule</title>
<polygon fill="none" stroke="black" stroke-dasharray="1,5" points="2057,-32.8 2057,-160.8 2397,-160.8 2397,-32.8 2057,-32.8"/>
</g>
<g id="clust53" class="cluster">
<title>cluster_ProductsModule_imports</title>
<polygon fill="none" stroke="black" points="2219,-40.8 2219,-92.8 2389,-92.8 2389,-40.8 2219,-40.8"/>
</g>
<g id="clust51" class="cluster">
<title>cluster_ProductsModule_declarations</title>
<polygon fill="none" stroke="black" points="2065,-40.8 2065,-92.8 2211,-92.8 2211,-40.8 2065,-40.8"/>
</g>
<g id="clust15" class="cluster">
<title>cluster_CierrePedidosModule</title>
<polygon fill="none" stroke="black" stroke-dasharray="1,5" points="904,-100.8 904,-225.8 1304,-225.8 1304,-100.8 904,-100.8"/>
</g>
<g id="clust16" class="cluster">
<title>cluster_CierrePedidosModule_declarations</title>
<polygon fill="none" stroke="black" points="1120,-108.8 1120,-160.8 1296,-160.8 1296,-108.8 1120,-108.8"/>
</g>
<g id="clust18" class="cluster">
<title>cluster_CierrePedidosModule_imports</title>
<polygon fill="none" stroke="black" points="912,-108.8 912,-160.8 1112,-160.8 1112,-108.8 912,-108.8"/>
</g>
<!-- AppComponent -->
<g id="node1" class="node">
<title>AppComponent</title>
<polygon fill="#ffffb3" stroke="black" points="261.94,-152.8 156.06,-152.8 156.06,-116.8 261.94,-116.8 261.94,-152.8"/>
<text text-anchor="middle" x="209" y="-130.6" font-family="Times,serif" font-size="14.00">AppComponent</text>
</g>
<!-- AppModule -->
<g id="node3" class="node">
<title>AppModule</title>
<polygon fill="#8dd3c7" stroke="black" points="320.66,-217.8 317.66,-221.8 296.66,-221.8 293.66,-217.8 237.34,-217.8 237.34,-181.8 320.66,-181.8 320.66,-217.8"/>
<text text-anchor="middle" x="279" y="-195.6" font-family="Times,serif" font-size="14.00">AppModule</text>
</g>
<!-- AppComponent&#45;&gt;AppModule -->
<g id="edge1" class="edge">
<title>AppComponent&#45;&gt;AppModule</title>
<path fill="none" stroke="black" d="M249.45,-152.91C249.45,-152.91 249.45,-171.79 249.45,-171.79"/>
<polygon fill="black" stroke="black" points="245.95,-171.79 249.45,-181.79 252.95,-171.79 245.95,-171.79"/>
</g>
<!-- LoginComponent -->
<g id="node2" class="node">
<title>LoginComponent</title>
<polygon fill="#ffffb3" stroke="black" points="138.28,-152.8 23.72,-152.8 23.72,-116.8 138.28,-116.8 138.28,-152.8"/>
<text text-anchor="middle" x="81" y="-130.6" font-family="Times,serif" font-size="14.00">LoginComponent</text>
</g>
<!-- LoginComponent&#45;&gt;AppModule -->
<g id="edge2" class="edge">
<title>LoginComponent&#45;&gt;AppModule</title>
<path fill="none" stroke="black" d="M81,-152.91C81,-172.14 81,-199.8 81,-199.8 81,-199.8 227.01,-199.8 227.01,-199.8"/>
<polygon fill="black" stroke="black" points="227.01,-203.3 237.01,-199.8 227.01,-196.3 227.01,-203.3"/>
</g>
<!-- AppComponent  -->
<g id="node6" class="node">
<title>AppComponent </title>
<polygon fill="#80b1d3" stroke="black" points="333.44,-285.8 224.56,-285.8 224.56,-249.8 333.44,-249.8 333.44,-285.8"/>
<text text-anchor="middle" x="279" y="-263.6" font-family="Times,serif" font-size="14.00">AppComponent </text>
</g>
<!-- AppModule&#45;&gt;AppComponent  -->
<g id="edge5" class="edge">
<title>AppModule&#45;&gt;AppComponent </title>
<path fill="none" stroke="black" stroke-dasharray="1,5" d="M279,-218.02C279,-218.02 279,-239.53 279,-239.53"/>
<polygon fill="black" stroke="black" points="275.5,-239.53 279,-249.53 282.5,-239.53 275.5,-239.53"/>
</g>
<!-- AppRoutingModule -->
<g id="node4" class="node">
<title>AppRoutingModule</title>
<polygon fill="#8dd3c7" stroke="black" points="414.27,-152.8 411.27,-156.8 390.27,-156.8 387.27,-152.8 285.73,-152.8 285.73,-116.8 414.27,-116.8 414.27,-152.8"/>
<text text-anchor="middle" x="350" y="-130.6" font-family="Times,serif" font-size="14.00">AppRoutingModule</text>
</g>
<!-- AppRoutingModule&#45;&gt;AppModule -->
<g id="edge3" class="edge">
<title>AppRoutingModule&#45;&gt;AppModule</title>
<path fill="none" stroke="black" d="M303.22,-152.91C303.22,-152.91 303.22,-171.79 303.22,-171.79"/>
<polygon fill="black" stroke="black" points="299.72,-171.79 303.22,-181.79 306.72,-171.79 299.72,-171.79"/>
</g>
<!-- LayoutModule -->
<g id="node5" class="node">
<title>LayoutModule</title>
<polygon fill="#8dd3c7" stroke="black" points="641.71,-152.8 638.71,-156.8 617.71,-156.8 614.71,-152.8 542.29,-152.8 542.29,-116.8 641.71,-116.8 641.71,-152.8"/>
<text text-anchor="middle" x="592" y="-130.6" font-family="Times,serif" font-size="14.00">LayoutModule</text>
</g>
<!-- LayoutModule&#45;&gt;AppModule -->
<g id="edge4" class="edge">
<title>LayoutModule&#45;&gt;AppModule</title>
<path fill="none" stroke="black" d="M542.06,-134.8C495.82,-134.8 434.17,-134.8 434.17,-134.8 434.17,-134.8 434.17,-199.8 434.17,-199.8 434.17,-199.8 330.99,-199.8 330.99,-199.8"/>
<polygon fill="black" stroke="black" points="330.99,-196.3 320.99,-199.8 330.99,-203.3 330.99,-196.3"/>
</g>
<!-- FullLayoutComponent  -->
<g id="node17" class="node">
<title>FullLayoutComponent </title>
<polygon fill="#fb8072" stroke="black" points="665.55,-217.8 518.45,-217.8 518.45,-181.8 665.55,-181.8 665.55,-217.8"/>
<text text-anchor="middle" x="592" y="-195.6" font-family="Times,serif" font-size="14.00">FullLayoutComponent </text>
</g>
<!-- LayoutModule&#45;&gt;FullLayoutComponent  -->
<g id="edge14" class="edge">
<title>LayoutModule&#45;&gt;FullLayoutComponent </title>
<path fill="none" stroke="black" stroke-dasharray="5,2" d="M592,-152.91C592,-152.91 592,-171.79 592,-171.79"/>
<polygon fill="black" stroke="black" points="588.5,-171.79 592,-181.79 595.5,-171.79 588.5,-171.79"/>
</g>
<!-- CierrePedidosComponent -->
<g id="node7" class="node">
<title>CierrePedidosComponent</title>
<polygon fill="#ffffb3" stroke="black" points="1288.14,-152.8 1127.86,-152.8 1127.86,-116.8 1288.14,-116.8 1288.14,-152.8"/>
<text text-anchor="middle" x="1208" y="-130.6" font-family="Times,serif" font-size="14.00">CierrePedidosComponent</text>
</g>
<!-- CierrePedidosModule -->
<g id="node8" class="node">
<title>CierrePedidosModule</title>
<polygon fill="#8dd3c7" stroke="black" points="1277.36,-217.8 1274.36,-221.8 1253.36,-221.8 1250.36,-217.8 1138.64,-217.8 1138.64,-181.8 1277.36,-181.8 1277.36,-217.8"/>
<text text-anchor="middle" x="1208" y="-195.6" font-family="Times,serif" font-size="14.00">CierrePedidosModule</text>
</g>
<!-- CierrePedidosComponent&#45;&gt;CierrePedidosModule -->
<g id="edge6" class="edge">
<title>CierrePedidosComponent&#45;&gt;CierrePedidosModule</title>
<path fill="none" stroke="black" d="M1208,-152.91C1208,-152.91 1208,-171.79 1208,-171.79"/>
<polygon fill="black" stroke="black" points="1204.5,-171.79 1208,-181.79 1211.5,-171.79 1204.5,-171.79"/>
</g>
<!-- CierrePedidosRoutingModule -->
<g id="node9" class="node">
<title>CierrePedidosRoutingModule</title>
<polygon fill="#8dd3c7" stroke="black" points="1103.98,-152.8 1100.98,-156.8 1079.98,-156.8 1076.98,-152.8 920.02,-152.8 920.02,-116.8 1103.98,-116.8 1103.98,-152.8"/>
<text text-anchor="middle" x="1012" y="-130.6" font-family="Times,serif" font-size="14.00">CierrePedidosRoutingModule</text>
</g>
<!-- CierrePedidosRoutingModule&#45;&gt;CierrePedidosModule -->
<g id="edge7" class="edge">
<title>CierrePedidosRoutingModule&#45;&gt;CierrePedidosModule</title>
<path fill="none" stroke="black" d="M1012,-152.91C1012,-172.14 1012,-199.8 1012,-199.8 1012,-199.8 1128.62,-199.8 1128.62,-199.8"/>
<polygon fill="black" stroke="black" points="1128.62,-203.3 1138.62,-199.8 1128.62,-196.3 1128.62,-203.3"/>
</g>
<!-- SharedModule -->
<g id="node10" class="node">
<title>SharedModule</title>
<polygon fill="#8dd3c7" stroke="black" points="1456.42,-152.8 1453.42,-156.8 1432.42,-156.8 1429.42,-152.8 1357.58,-152.8 1357.58,-116.8 1456.42,-116.8 1456.42,-152.8"/>
<text text-anchor="middle" x="1407" y="-130.6" font-family="Times,serif" font-size="14.00">SharedModule</text>
</g>
<!-- SharedModule&#45;&gt;CierrePedidosModule -->
<g id="edge8" class="edge">
<title>SharedModule&#45;&gt;CierrePedidosModule</title>
<path fill="none" stroke="black" d="M1357.51,-134.8C1332.77,-134.8 1308.03,-134.8 1308.03,-134.8 1308.03,-134.8 1308.03,-199.8 1308.03,-199.8 1308.03,-199.8 1287.47,-199.8 1287.47,-199.8"/>
<polygon fill="black" stroke="black" points="1287.47,-196.3 1277.47,-199.8 1287.47,-203.3 1287.47,-196.3"/>
</g>
<!-- DatepickerPopupComponent  -->
<g id="node26" class="node">
<title>DatepickerPopupComponent </title>
<polygon fill="#fb8072" stroke="black" points="1510.02,-217.8 1327.98,-217.8 1327.98,-181.8 1510.02,-181.8 1510.02,-217.8"/>
<text text-anchor="middle" x="1419" y="-195.6" font-family="Times,serif" font-size="14.00">DatepickerPopupComponent </text>
</g>
<!-- SharedModule&#45;&gt;DatepickerPopupComponent  -->
<g id="edge21" class="edge">
<title>SharedModule&#45;&gt;DatepickerPopupComponent </title>
<path fill="none" stroke="black" stroke-dasharray="5,2" d="M1407,-152.91C1407,-152.91 1407,-171.79 1407,-171.79"/>
<polygon fill="black" stroke="black" points="1403.5,-171.79 1407,-181.79 1410.5,-171.79 1403.5,-171.79"/>
</g>
<!-- DashboardComponent -->
<g id="node11" class="node">
<title>DashboardComponent</title>
<polygon fill="#ffffb3" stroke="black" points="2032.97,-84.8 1891.03,-84.8 1891.03,-48.8 2032.97,-48.8 2032.97,-84.8"/>
<text text-anchor="middle" x="1962" y="-62.6" font-family="Times,serif" font-size="14.00">DashboardComponent</text>
</g>
<!-- DashboardModule -->
<g id="node12" class="node">
<title>DashboardModule</title>
<polygon fill="#8dd3c7" stroke="black" points="1933.19,-152.8 1930.19,-156.8 1909.19,-156.8 1906.19,-152.8 1812.81,-152.8 1812.81,-116.8 1933.19,-116.8 1933.19,-152.8"/>
<text text-anchor="middle" x="1873" y="-130.6" font-family="Times,serif" font-size="14.00">DashboardModule</text>
</g>
<!-- DashboardComponent&#45;&gt;DashboardModule -->
<g id="edge9" class="edge">
<title>DashboardComponent&#45;&gt;DashboardModule</title>
<path fill="none" stroke="black" d="M1912.05,-85.02C1912.05,-85.02 1912.05,-106.53 1912.05,-106.53"/>
<polygon fill="black" stroke="black" points="1908.55,-106.53 1912.05,-116.53 1915.55,-106.53 1908.55,-106.53"/>
</g>
<!-- DashboardRoutingModule -->
<g id="node13" class="node">
<title>DashboardRoutingModule</title>
<polygon fill="#8dd3c7" stroke="black" points="1866.81,-84.8 1863.81,-88.8 1842.81,-88.8 1839.81,-84.8 1701.19,-84.8 1701.19,-48.8 1866.81,-48.8 1866.81,-84.8"/>
<text text-anchor="middle" x="1784" y="-62.6" font-family="Times,serif" font-size="14.00">DashboardRoutingModule</text>
</g>
<!-- DashboardRoutingModule&#45;&gt;DashboardModule -->
<g id="edge10" class="edge">
<title>DashboardRoutingModule&#45;&gt;DashboardModule</title>
<path fill="none" stroke="black" d="M1839.78,-85.02C1839.78,-85.02 1839.78,-106.53 1839.78,-106.53"/>
<polygon fill="black" stroke="black" points="1836.28,-106.53 1839.78,-116.53 1843.28,-106.53 1836.28,-106.53"/>
</g>
<!-- FullLayoutComponent -->
<g id="node14" class="node">
<title>FullLayoutComponent</title>
<polygon fill="#ffffb3" stroke="black" points="879.55,-84.8 736.45,-84.8 736.45,-48.8 879.55,-48.8 879.55,-84.8"/>
<text text-anchor="middle" x="808" y="-62.6" font-family="Times,serif" font-size="14.00">FullLayoutComponent</text>
</g>
<!-- FullLayoutComponent&#45;&gt;LayoutModule -->
<g id="edge11" class="edge">
<title>FullLayoutComponent&#45;&gt;LayoutModule</title>
<path fill="none" stroke="black" d="M808,-85.02C808,-105.17 808,-134.8 808,-134.8 808,-134.8 651.83,-134.8 651.83,-134.8"/>
<polygon fill="black" stroke="black" points="651.83,-131.3 641.83,-134.8 651.83,-138.3 651.83,-131.3"/>
</g>
<!-- HeaderComponent -->
<g id="node15" class="node">
<title>HeaderComponent</title>
<polygon fill="#ffffb3" stroke="black" points="717.74,-84.8 596.26,-84.8 596.26,-48.8 717.74,-48.8 717.74,-84.8"/>
<text text-anchor="middle" x="657" y="-62.6" font-family="Times,serif" font-size="14.00">HeaderComponent</text>
</g>
<!-- HeaderComponent&#45;&gt;LayoutModule -->
<g id="edge12" class="edge">
<title>HeaderComponent&#45;&gt;LayoutModule</title>
<path fill="none" stroke="black" d="M618.87,-85.02C618.87,-85.02 618.87,-106.53 618.87,-106.53"/>
<polygon fill="black" stroke="black" points="615.37,-106.53 618.87,-116.53 622.37,-106.53 615.37,-106.53"/>
</g>
<!-- SidebarComponent -->
<g id="node16" class="node">
<title>SidebarComponent</title>
<polygon fill="#ffffb3" stroke="black" points="578.1,-84.8 453.9,-84.8 453.9,-48.8 578.1,-48.8 578.1,-84.8"/>
<text text-anchor="middle" x="516" y="-62.6" font-family="Times,serif" font-size="14.00">SidebarComponent</text>
</g>
<!-- SidebarComponent&#45;&gt;LayoutModule -->
<g id="edge13" class="edge">
<title>SidebarComponent&#45;&gt;LayoutModule</title>
<path fill="none" stroke="black" d="M560.22,-85.02C560.22,-85.02 560.22,-106.53 560.22,-106.53"/>
<polygon fill="black" stroke="black" points="556.72,-106.53 560.22,-116.53 563.72,-106.53 556.72,-106.53"/>
</g>
<!-- ProductsComponent -->
<g id="node18" class="node">
<title>ProductsComponent</title>
<polygon fill="#ffffb3" stroke="black" points="2203.33,-84.8 2072.67,-84.8 2072.67,-48.8 2203.33,-48.8 2203.33,-84.8"/>
<text text-anchor="middle" x="2138" y="-62.6" font-family="Times,serif" font-size="14.00">ProductsComponent</text>
</g>
<!-- ProductsModule -->
<g id="node19" class="node">
<title>ProductsModule</title>
<polygon fill="#8dd3c7" stroke="black" points="2275.04,-152.8 2272.04,-156.8 2251.04,-156.8 2248.04,-152.8 2166.96,-152.8 2166.96,-116.8 2275.04,-116.8 2275.04,-152.8"/>
<text text-anchor="middle" x="2221" y="-130.6" font-family="Times,serif" font-size="14.00">ProductsModule</text>
</g>
<!-- ProductsComponent&#45;&gt;ProductsModule -->
<g id="edge15" class="edge">
<title>ProductsComponent&#45;&gt;ProductsModule</title>
<path fill="none" stroke="black" d="M2184.95,-85.02C2184.95,-85.02 2184.95,-106.53 2184.95,-106.53"/>
<polygon fill="black" stroke="black" points="2181.45,-106.53 2184.95,-116.53 2188.45,-106.53 2181.45,-106.53"/>
</g>
<!-- ProductsRoutingModule -->
<g id="node20" class="node">
<title>ProductsRoutingModule</title>
<polygon fill="#8dd3c7" stroke="black" points="2380.66,-84.8 2377.66,-88.8 2356.66,-88.8 2353.66,-84.8 2227.34,-84.8 2227.34,-48.8 2380.66,-48.8 2380.66,-84.8"/>
<text text-anchor="middle" x="2304" y="-62.6" font-family="Times,serif" font-size="14.00">ProductsRoutingModule</text>
</g>
<!-- ProductsRoutingModule&#45;&gt;ProductsModule -->
<g id="edge16" class="edge">
<title>ProductsRoutingModule&#45;&gt;ProductsModule</title>
<path fill="none" stroke="black" d="M2251.22,-85.02C2251.22,-85.02 2251.22,-106.53 2251.22,-106.53"/>
<polygon fill="black" stroke="black" points="2247.72,-106.53 2251.22,-116.53 2254.72,-106.53 2247.72,-106.53"/>
</g>
<!-- ProfileComponent -->
<g id="node21" class="node">
<title>ProfileComponent</title>
<polygon fill="#ffffb3" stroke="black" points="2706.93,-84.8 2587.07,-84.8 2587.07,-48.8 2706.93,-48.8 2706.93,-84.8"/>
<text text-anchor="middle" x="2647" y="-62.6" font-family="Times,serif" font-size="14.00">ProfileComponent</text>
</g>
<!-- ProfileModule -->
<g id="node22" class="node">
<title>ProfileModule</title>
<polygon fill="#8dd3c7" stroke="black" points="2617.65,-152.8 2614.65,-156.8 2593.65,-156.8 2590.65,-152.8 2520.35,-152.8 2520.35,-116.8 2617.65,-116.8 2617.65,-152.8"/>
<text text-anchor="middle" x="2569" y="-130.6" font-family="Times,serif" font-size="14.00">ProfileModule</text>
</g>
<!-- ProfileComponent&#45;&gt;ProfileModule -->
<g id="edge17" class="edge">
<title>ProfileComponent&#45;&gt;ProfileModule</title>
<path fill="none" stroke="black" d="M2602.55,-85.02C2602.55,-85.02 2602.55,-106.53 2602.55,-106.53"/>
<polygon fill="black" stroke="black" points="2599.05,-106.53 2602.55,-116.53 2606.05,-106.53 2599.05,-106.53"/>
</g>
<!-- ProfileRoutingModule -->
<g id="node23" class="node">
<title>ProfileRoutingModule</title>
<polygon fill="#8dd3c7" stroke="black" points="2563.27,-84.8 2560.27,-88.8 2539.27,-88.8 2536.27,-84.8 2420.73,-84.8 2420.73,-48.8 2563.27,-48.8 2563.27,-84.8"/>
<text text-anchor="middle" x="2492" y="-62.6" font-family="Times,serif" font-size="14.00">ProfileRoutingModule</text>
</g>
<!-- ProfileRoutingModule&#45;&gt;ProfileModule -->
<g id="edge18" class="edge">
<title>ProfileRoutingModule&#45;&gt;ProfileModule</title>
<path fill="none" stroke="black" d="M2541.78,-85.02C2541.78,-85.02 2541.78,-106.53 2541.78,-106.53"/>
<polygon fill="black" stroke="black" points="2538.28,-106.53 2541.78,-116.53 2545.28,-106.53 2538.28,-106.53"/>
</g>
<!-- DatepickerPopupComponent -->
<g id="node24" class="node">
<title>DatepickerPopupComponent</title>
<polygon fill="#ffffb3" stroke="black" points="1661.02,-84.8 1482.98,-84.8 1482.98,-48.8 1661.02,-48.8 1661.02,-84.8"/>
<text text-anchor="middle" x="1572" y="-62.6" font-family="Times,serif" font-size="14.00">DatepickerPopupComponent</text>
</g>
<!-- DatepickerPopupComponent&#45;&gt;SharedModule -->
<g id="edge19" class="edge">
<title>DatepickerPopupComponent&#45;&gt;SharedModule</title>
<path fill="none" stroke="black" d="M1496.38,-85.02C1496.38,-105.17 1496.38,-134.8 1496.38,-134.8 1496.38,-134.8 1466.39,-134.8 1466.39,-134.8"/>
<polygon fill="black" stroke="black" points="1466.39,-131.3 1456.39,-134.8 1466.39,-138.3 1466.39,-131.3"/>
</g>
<!-- InputTextComponent -->
<g id="node25" class="node">
<title>InputTextComponent</title>
<polygon fill="#ffffb3" stroke="black" points="1464.04,-84.8 1327.96,-84.8 1327.96,-48.8 1464.04,-48.8 1464.04,-84.8"/>
<text text-anchor="middle" x="1396" y="-62.6" font-family="Times,serif" font-size="14.00">InputTextComponent</text>
</g>
<!-- InputTextComponent&#45;&gt;SharedModule -->
<g id="edge20" class="edge">
<title>InputTextComponent&#45;&gt;SharedModule</title>
<path fill="none" stroke="black" d="M1407,-85.02C1407,-85.02 1407,-106.53 1407,-106.53"/>
<polygon fill="black" stroke="black" points="1403.5,-106.53 1407,-116.53 1410.5,-106.53 1403.5,-106.53"/>
</g>
</g>
</svg>
