<?xml version="1.0" encoding="UTF-8" standalone="no"?>
<!DOCTYPE svg PUBLIC "-//W3C//DTD SVG 1.1//EN"
 "http://www.w3.org/Graphics/SVG/1.1/DTD/svg11.dtd">
<!-- Generated by graphviz version 2.47.3 (20210619.1520)
 -->
<!-- Title: dependencies Pages: 1 -->
<svg width="2449pt" height="323pt"
 viewBox="0.00 0.00 2449.00 322.80" xmlns="http://www.w3.org/2000/svg" xmlns:xlink="http://www.w3.org/1999/xlink">
<g id="graph0" class="graph" transform="scale(1 1) rotate(0) translate(4 318.8)">
<title>dependencies</title>
<polygon fill="white" stroke="transparent" points="-4,4 -4,-318.8 2445,-318.8 2445,4 -4,4"/>
<text text-anchor="middle" x="1220.5" y="-8.2" font-family="sans-serif" font-size="14.00">dependencies</text>
<g id="clust50" class="cluster">
<title>cluster_ProductsModule</title>
<polygon fill="none" stroke="black" stroke-dasharray="1,5" points="1767,-32.8 1767,-168.8 2107,-168.8 2107,-32.8 1767,-32.8"/>
</g>
<g id="clust51" class="cluster">
<title>cluster_ProductsModule_declarations</title>
<polygon fill="none" stroke="black" points="1953,-40.8 1953,-92.8 2099,-92.8 2099,-40.8 1953,-40.8"/>
</g>
<g id="clust53" class="cluster">
<title>cluster_ProductsModule_imports</title>
<polygon fill="none" stroke="black" points="1775,-40.8 1775,-92.8 1945,-92.8 1945,-40.8 1775,-40.8"/>
</g>
<g id="clust15" class="cluster">
<title>cluster_CierrePedidosModule</title>
<polygon fill="none" stroke="black" stroke-dasharray="1,5" points="871,-108.8 871,-233.8 1387,-233.8 1387,-108.8 871,-108.8"/>
</g>
<g id="clust16" class="cluster">
<title>cluster_CierrePedidosModule_declarations</title>
<polygon fill="none" stroke="black" points="1203,-116.8 1203,-168.8 1379,-168.8 1379,-116.8 1203,-116.8"/>
</g>
<g id="clust18" class="cluster">
<title>cluster_CierrePedidosModule_imports</title>
<polygon fill="none" stroke="black" points="879,-116.8 879,-168.8 1195,-168.8 1195,-116.8 879,-116.8"/>
</g>
<g id="clust28" class="cluster">
<title>cluster_DashboardModule</title>
<polygon fill="none" stroke="black" stroke-dasharray="1,5" points="1395,-32.8 1395,-168.8 1759,-168.8 1759,-32.8 1395,-32.8"/>
</g>
<g id="clust29" class="cluster">
<title>cluster_DashboardModule_declarations</title>
<polygon fill="none" stroke="black" points="1593,-40.8 1593,-92.8 1751,-92.8 1751,-40.8 1593,-40.8"/>
</g>
<g id="clust31" class="cluster">
<title>cluster_DashboardModule_imports</title>
<polygon fill="none" stroke="black" points="1403,-40.8 1403,-92.8 1585,-92.8 1585,-40.8 1403,-40.8"/>
</g>
<g id="clust1" class="cluster">
<title>cluster_AppModule</title>
<polygon fill="none" stroke="black" stroke-dasharray="1,5" points="257,-108.8 257,-306.8 797,-306.8 797,-108.8 257,-108.8"/>
</g>
<g id="clust7" class="cluster">
<title>cluster_AppModule_bootstrap</title>
<polygon fill="none" stroke="black" points="465,-246.8 465,-298.8 589,-298.8 589,-246.8 465,-246.8"/>
</g>
<g id="clust2" class="cluster">
<title>cluster_AppModule_declarations</title>
<polygon fill="none" stroke="black" points="535,-116.8 535,-168.8 789,-168.8 789,-116.8 535,-116.8"/>
</g>
<g id="clust5" class="cluster">
<title>cluster_AppModule_imports</title>
<polygon fill="none" stroke="black" points="265,-116.8 265,-168.8 527,-168.8 527,-116.8 265,-116.8"/>
</g>
<g id="clust63" class="cluster">
<title>cluster_ProfileModule</title>
<polygon fill="none" stroke="black" stroke-dasharray="1,5" points="2115,-32.8 2115,-168.8 2433,-168.8 2433,-32.8 2115,-32.8"/>
</g>
<g id="clust64" class="cluster">
<title>cluster_ProfileModule_declarations</title>
<polygon fill="none" stroke="black" points="2289,-40.8 2289,-92.8 2425,-92.8 2425,-40.8 2289,-40.8"/>
</g>
<g id="clust66" class="cluster">
<title>cluster_ProfileModule_imports</title>
<polygon fill="none" stroke="black" points="2123,-40.8 2123,-92.8 2281,-92.8 2281,-40.8 2123,-40.8"/>
</g>
<g id="clust76" class="cluster">
<title>cluster_SharedModule</title>
<polygon fill="none" stroke="black" stroke-dasharray="1,5" points="646,-32.8 646,-100.8 1217,-100.8 1217,-32.8 646,-32.8"/>
</g>
<g id="clust77" class="cluster">
<title>cluster_SharedModule_declarations</title>
<polygon fill="none" stroke="black" points="860,-40.8 860,-92.8 1209,-92.8 1209,-40.8 860,-40.8"/>
</g>
<g id="clust81" class="cluster">
<title>cluster_SharedModule_exports</title>
<polygon fill="none" stroke="black" points="654,-40.8 654,-92.8 852,-92.8 852,-40.8 654,-40.8"/>
</g>
<g id="clust41" class="cluster">
<title>cluster_LayoutModule</title>
<polygon fill="none" stroke="black" stroke-dasharray="1,5" points="8,-32.8 8,-100.8 638,-100.8 638,-32.8 8,-32.8"/>
</g>
<g id="clust42" class="cluster">
<title>cluster_LayoutModule_declarations</title>
<polygon fill="none" stroke="black" points="188,-40.8 188,-92.8 630,-92.8 630,-40.8 188,-40.8"/>
</g>
<g id="clust47" class="cluster">
<title>cluster_LayoutModule_exports</title>
<polygon fill="none" stroke="black" points="16,-40.8 16,-92.8 180,-92.8 180,-40.8 16,-40.8"/>
</g>
<!-- AppComponent -->
<g id="node1" class="node">
<title>AppComponent</title>
<polygon fill="#ffffb3" stroke="black" points="780.94,-160.8 675.06,-160.8 675.06,-124.8 780.94,-124.8 780.94,-160.8"/>
<text text-anchor="middle" x="728" y="-138.6" font-family="Times,serif" font-size="14.00">AppComponent</text>
</g>
<!-- AppModule -->
<g id="node3" class="node">
<title>AppModule</title>
<polygon fill="#8dd3c7" stroke="black" points="568.66,-225.8 565.66,-229.8 544.66,-229.8 541.66,-225.8 485.34,-225.8 485.34,-189.8 568.66,-189.8 568.66,-225.8"/>
<text text-anchor="middle" x="527" y="-203.6" font-family="Times,serif" font-size="14.00">AppModule</text>
</g>
<!-- AppComponent&#45;&gt;AppModule -->
<g id="edge1" class="edge">
<title>AppComponent&#45;&gt;AppModule</title>
<path fill="none" stroke="black" d="M728,-160.82C728,-178.17 728,-201.8 728,-201.8 728,-201.8 579.14,-201.8 579.14,-201.8"/>
<polygon fill="black" stroke="black" points="579.14,-198.3 569.14,-201.8 579.14,-205.3 579.14,-198.3"/>
</g>
<!-- LoginComponent -->
<g id="node2" class="node">
<title>LoginComponent</title>
<polygon fill="#ffffb3" stroke="black" points="657.28,-160.8 542.72,-160.8 542.72,-124.8 657.28,-124.8 657.28,-160.8"/>
<text text-anchor="middle" x="600" y="-138.6" font-family="Times,serif" font-size="14.00">LoginComponent</text>
</g>
<!-- LoginComponent&#45;&gt;AppModule -->
<g id="edge2" class="edge">
<title>LoginComponent&#45;&gt;AppModule</title>
<path fill="none" stroke="black" d="M555.72,-160.91C555.72,-160.91 555.72,-179.79 555.72,-179.79"/>
<polygon fill="black" stroke="black" points="552.22,-179.79 555.72,-189.79 559.22,-179.79 552.22,-179.79"/>
</g>
<!-- AppComponent  -->
<g id="node6" class="node">
<title>AppComponent </title>
<polygon fill="#80b1d3" stroke="black" points="581.44,-290.8 472.56,-290.8 472.56,-254.8 581.44,-254.8 581.44,-290.8"/>
<text text-anchor="middle" x="527" y="-268.6" font-family="Times,serif" font-size="14.00">AppComponent </text>
</g>
<!-- AppModule&#45;&gt;AppComponent  -->
<g id="edge5" class="edge">
<title>AppModule&#45;&gt;AppComponent </title>
<path fill="none" stroke="black" stroke-dasharray="1,5" d="M527,-225.91C527,-225.91 527,-244.79 527,-244.79"/>
<polygon fill="black" stroke="black" points="523.5,-244.79 527,-254.79 530.5,-244.79 523.5,-244.79"/>
</g>
<!-- AppRoutingModule -->
<g id="node4" class="node">
<title>AppRoutingModule</title>
<polygon fill="#8dd3c7" stroke="black" points="519.27,-160.8 516.27,-164.8 495.27,-164.8 492.27,-160.8 390.73,-160.8 390.73,-124.8 519.27,-124.8 519.27,-160.8"/>
<text text-anchor="middle" x="455" y="-138.6" font-family="Times,serif" font-size="14.00">AppRoutingModule</text>
</g>
<!-- AppRoutingModule&#45;&gt;AppModule -->
<g id="edge3" class="edge">
<title>AppRoutingModule&#45;&gt;AppModule</title>
<path fill="none" stroke="black" d="M502.28,-160.91C502.28,-160.91 502.28,-179.79 502.28,-179.79"/>
<polygon fill="black" stroke="black" points="498.78,-179.79 502.28,-189.79 505.78,-179.79 498.78,-179.79"/>
</g>
<!-- LayoutModule -->
<g id="node5" class="node">
<title>LayoutModule</title>
<polygon fill="#8dd3c7" stroke="black" points="372.71,-160.8 369.71,-164.8 348.71,-164.8 345.71,-160.8 273.29,-160.8 273.29,-124.8 372.71,-124.8 372.71,-160.8"/>
<text text-anchor="middle" x="323" y="-138.6" font-family="Times,serif" font-size="14.00">LayoutModule</text>
</g>
<!-- LayoutModule&#45;&gt;AppModule -->
<g id="edge4" class="edge">
<title>LayoutModule&#45;&gt;AppModule</title>
<path fill="none" stroke="black" d="M323,-160.91C323,-180.14 323,-207.8 323,-207.8 323,-207.8 475.23,-207.8 475.23,-207.8"/>
<polygon fill="black" stroke="black" points="475.23,-211.3 485.23,-207.8 475.23,-204.3 475.23,-211.3"/>
</g>
<!-- FullLayoutComponent  -->
<g id="node17" class="node">
<title>FullLayoutComponent </title>
<polygon fill="#fb8072" stroke="black" points="171.55,-84.8 24.45,-84.8 24.45,-48.8 171.55,-48.8 171.55,-84.8"/>
<text text-anchor="middle" x="98" y="-62.6" font-family="Times,serif" font-size="14.00">FullLayoutComponent </text>
</g>
<!-- LayoutModule&#45;&gt;FullLayoutComponent  -->
<g id="edge14" class="edge">
<title>LayoutModule&#45;&gt;FullLayoutComponent </title>
<path fill="none" stroke="black" stroke-dasharray="5,2" d="M273.34,-142.8C207.08,-142.8 98,-142.8 98,-142.8 98,-142.8 98,-94.81 98,-94.81"/>
<polygon fill="black" stroke="black" points="101.5,-94.81 98,-84.81 94.5,-94.81 101.5,-94.81"/>
</g>
<!-- CierrePedidosComponent -->
<g id="node7" class="node">
<title>CierrePedidosComponent</title>
<polygon fill="#ffffb3" stroke="black" points="1371.14,-160.8 1210.86,-160.8 1210.86,-124.8 1371.14,-124.8 1371.14,-160.8"/>
<text text-anchor="middle" x="1291" y="-138.6" font-family="Times,serif" font-size="14.00">CierrePedidosComponent</text>
</g>
<!-- CierrePedidosModule -->
<g id="node8" class="node">
<title>CierrePedidosModule</title>
<polygon fill="#8dd3c7" stroke="black" points="1164.36,-225.8 1161.36,-229.8 1140.36,-229.8 1137.36,-225.8 1025.64,-225.8 1025.64,-189.8 1164.36,-189.8 1164.36,-225.8"/>
<text text-anchor="middle" x="1095" y="-203.6" font-family="Times,serif" font-size="14.00">CierrePedidosModule</text>
</g>
<!-- CierrePedidosComponent&#45;&gt;CierrePedidosModule -->
<g id="edge6" class="edge">
<title>CierrePedidosComponent&#45;&gt;CierrePedidosModule</title>
<path fill="none" stroke="black" d="M1291,-160.91C1291,-180.14 1291,-207.8 1291,-207.8 1291,-207.8 1174.38,-207.8 1174.38,-207.8"/>
<polygon fill="black" stroke="black" points="1174.38,-204.3 1164.38,-207.8 1174.38,-211.3 1174.38,-204.3"/>
</g>
<!-- CierrePedidosRoutingModule -->
<g id="node9" class="node">
<title>CierrePedidosRoutingModule</title>
<polygon fill="#8dd3c7" stroke="black" points="1186.98,-160.8 1183.98,-164.8 1162.98,-164.8 1159.98,-160.8 1003.02,-160.8 1003.02,-124.8 1186.98,-124.8 1186.98,-160.8"/>
<text text-anchor="middle" x="1095" y="-138.6" font-family="Times,serif" font-size="14.00">CierrePedidosRoutingModule</text>
</g>
<!-- CierrePedidosRoutingModule&#45;&gt;CierrePedidosModule -->
<g id="edge7" class="edge">
<title>CierrePedidosRoutingModule&#45;&gt;CierrePedidosModule</title>
<path fill="none" stroke="black" d="M1095,-160.91C1095,-160.91 1095,-179.79 1095,-179.79"/>
<polygon fill="black" stroke="black" points="1091.5,-179.79 1095,-189.79 1098.5,-179.79 1091.5,-179.79"/>
</g>
<!-- SharedModule -->
<g id="node10" class="node">
<title>SharedModule</title>
<polygon fill="#8dd3c7" stroke="black" points="985.42,-160.8 982.42,-164.8 961.42,-164.8 958.42,-160.8 886.58,-160.8 886.58,-124.8 985.42,-124.8 985.42,-160.8"/>
<text text-anchor="middle" x="936" y="-138.6" font-family="Times,serif" font-size="14.00">SharedModule</text>
</g>
<!-- SharedModule&#45;&gt;CierrePedidosModule -->
<g id="edge8" class="edge">
<title>SharedModule&#45;&gt;CierrePedidosModule</title>
<path fill="none" stroke="black" d="M936,-161.08C936,-182.12 936,-213.8 936,-213.8 936,-213.8 1015.26,-213.8 1015.26,-213.8"/>
<polygon fill="black" stroke="black" points="1015.26,-217.3 1025.26,-213.8 1015.26,-210.3 1015.26,-217.3"/>
</g>
<!-- DatepickerPopupComponent  -->
<g id="node26" class="node">
<title>DatepickerPopupComponent </title>
<polygon fill="#fb8072" stroke="black" points="844.02,-84.8 661.98,-84.8 661.98,-48.8 844.02,-48.8 844.02,-84.8"/>
<text text-anchor="middle" x="753" y="-62.6" font-family="Times,serif" font-size="14.00">DatepickerPopupComponent </text>
</g>
<!-- SharedModule&#45;&gt;DatepickerPopupComponent  -->
<g id="edge21" class="edge">
<title>SharedModule&#45;&gt;DatepickerPopupComponent </title>
<path fill="none" stroke="black" stroke-dasharray="5,2" d="M886.78,-142.8C852.3,-142.8 812.37,-142.8 812.37,-142.8 812.37,-142.8 812.37,-94.81 812.37,-94.81"/>
<polygon fill="black" stroke="black" points="815.87,-94.81 812.37,-84.81 808.87,-94.81 815.87,-94.81"/>
</g>
<!-- DashboardComponent -->
<g id="node11" class="node">
<title>DashboardComponent</title>
<polygon fill="#ffffb3" stroke="black" points="1742.97,-84.8 1601.03,-84.8 1601.03,-48.8 1742.97,-48.8 1742.97,-84.8"/>
<text text-anchor="middle" x="1672" y="-62.6" font-family="Times,serif" font-size="14.00">DashboardComponent</text>
</g>
<!-- DashboardModule -->
<g id="node12" class="node">
<title>DashboardModule</title>
<polygon fill="#8dd3c7" stroke="black" points="1643.19,-160.8 1640.19,-164.8 1619.19,-164.8 1616.19,-160.8 1522.81,-160.8 1522.81,-124.8 1643.19,-124.8 1643.19,-160.8"/>
<text text-anchor="middle" x="1583" y="-138.6" font-family="Times,serif" font-size="14.00">DashboardModule</text>
</g>
<!-- DashboardComponent&#45;&gt;DashboardModule -->
<g id="edge9" class="edge">
<title>DashboardComponent&#45;&gt;DashboardModule</title>
<path fill="none" stroke="black" d="M1622.05,-84.81C1622.05,-84.81 1622.05,-114.65 1622.05,-114.65"/>
<polygon fill="black" stroke="black" points="1618.55,-114.65 1622.05,-124.65 1625.55,-114.65 1618.55,-114.65"/>
</g>
<!-- DashboardRoutingModule -->
<g id="node13" class="node">
<title>DashboardRoutingModule</title>
<polygon fill="#8dd3c7" stroke="black" points="1576.81,-84.8 1573.81,-88.8 1552.81,-88.8 1549.81,-84.8 1411.19,-84.8 1411.19,-48.8 1576.81,-48.8 1576.81,-84.8"/>
<text text-anchor="middle" x="1494" y="-62.6" font-family="Times,serif" font-size="14.00">DashboardRoutingModule</text>
</g>
<!-- DashboardRoutingModule&#45;&gt;DashboardModule -->
<g id="edge10" class="edge">
<title>DashboardRoutingModule&#45;&gt;DashboardModule</title>
<path fill="none" stroke="black" d="M1549.78,-84.81C1549.78,-84.81 1549.78,-114.65 1549.78,-114.65"/>
<polygon fill="black" stroke="black" points="1546.28,-114.65 1549.78,-124.65 1553.28,-114.65 1546.28,-114.65"/>
</g>
<!-- FullLayoutComponent -->
<g id="node14" class="node">
<title>FullLayoutComponent</title>
<polygon fill="#ffffb3" stroke="black" points="621.55,-84.8 478.45,-84.8 478.45,-48.8 621.55,-48.8 621.55,-84.8"/>
<text text-anchor="middle" x="550" y="-62.6" font-family="Times,serif" font-size="14.00">FullLayoutComponent</text>
</g>
<!-- FullLayoutComponent&#45;&gt;LayoutModule -->
<g id="edge11" class="edge">
<title>FullLayoutComponent&#45;&gt;LayoutModule</title>
<path fill="none" stroke="black" d="M498.81,-85.04C498.81,-92.23 498.81,-98.8 498.81,-98.8 498.81,-98.8 361.11,-98.8 361.11,-98.8 361.11,-98.8 361.11,-114.65 361.11,-114.65"/>
<polygon fill="black" stroke="black" points="357.61,-114.65 361.11,-124.65 364.61,-114.65 357.61,-114.65"/>
</g>
<!-- HeaderComponent -->
<g id="node15" class="node">
<title>HeaderComponent</title>
<polygon fill="#ffffb3" stroke="black" points="459.74,-84.8 338.26,-84.8 338.26,-48.8 459.74,-48.8 459.74,-84.8"/>
<text text-anchor="middle" x="399" y="-62.6" font-family="Times,serif" font-size="14.00">HeaderComponent</text>
</g>
<!-- HeaderComponent&#45;&gt;LayoutModule -->
<g id="edge12" class="edge">
<title>HeaderComponent&#45;&gt;LayoutModule</title>
<path fill="none" stroke="black" d="M349.62,-84.81C349.62,-84.81 349.62,-114.65 349.62,-114.65"/>
<polygon fill="black" stroke="black" points="346.12,-114.65 349.62,-124.65 353.12,-114.65 346.12,-114.65"/>
</g>
<!-- SidebarComponent -->
<g id="node16" class="node">
<title>SidebarComponent</title>
<polygon fill="#ffffb3" stroke="black" points="320.1,-84.8 195.9,-84.8 195.9,-48.8 320.1,-48.8 320.1,-84.8"/>
<text text-anchor="middle" x="258" y="-62.6" font-family="Times,serif" font-size="14.00">SidebarComponent</text>
</g>
<!-- SidebarComponent&#45;&gt;LayoutModule -->
<g id="edge13" class="edge">
<title>SidebarComponent&#45;&gt;LayoutModule</title>
<path fill="none" stroke="black" d="M296.72,-84.81C296.72,-84.81 296.72,-114.65 296.72,-114.65"/>
<polygon fill="black" stroke="black" points="293.22,-114.65 296.72,-124.65 300.22,-114.65 293.22,-114.65"/>
</g>
<!-- ProductsComponent -->
<g id="node18" class="node">
<title>ProductsComponent</title>
<polygon fill="#ffffb3" stroke="black" points="2091.33,-84.8 1960.67,-84.8 1960.67,-48.8 2091.33,-48.8 2091.33,-84.8"/>
<text text-anchor="middle" x="2026" y="-62.6" font-family="Times,serif" font-size="14.00">ProductsComponent</text>
</g>
<!-- ProductsModule -->
<g id="node19" class="node">
<title>ProductsModule</title>
<polygon fill="#8dd3c7" stroke="black" points="1997.04,-160.8 1994.04,-164.8 1973.04,-164.8 1970.04,-160.8 1888.96,-160.8 1888.96,-124.8 1997.04,-124.8 1997.04,-160.8"/>
<text text-anchor="middle" x="1943" y="-138.6" font-family="Times,serif" font-size="14.00">ProductsModule</text>
</g>
<!-- ProductsComponent&#45;&gt;ProductsModule -->
<g id="edge15" class="edge">
<title>ProductsComponent&#45;&gt;ProductsModule</title>
<path fill="none" stroke="black" d="M1979.05,-84.81C1979.05,-84.81 1979.05,-114.65 1979.05,-114.65"/>
<polygon fill="black" stroke="black" points="1975.55,-114.65 1979.05,-124.65 1982.55,-114.65 1975.55,-114.65"/>
</g>
<!-- ProductsRoutingModule -->
<g id="node20" class="node">
<title>ProductsRoutingModule</title>
<polygon fill="#8dd3c7" stroke="black" points="1936.66,-84.8 1933.66,-88.8 1912.66,-88.8 1909.66,-84.8 1783.34,-84.8 1783.34,-48.8 1936.66,-48.8 1936.66,-84.8"/>
<text text-anchor="middle" x="1860" y="-62.6" font-family="Times,serif" font-size="14.00">ProductsRoutingModule</text>
</g>
<!-- ProductsRoutingModule&#45;&gt;ProductsModule -->
<g id="edge16" class="edge">
<title>ProductsRoutingModule&#45;&gt;ProductsModule</title>
<path fill="none" stroke="black" d="M1912.78,-84.81C1912.78,-84.81 1912.78,-114.65 1912.78,-114.65"/>
<polygon fill="black" stroke="black" points="1909.28,-114.65 1912.78,-124.65 1916.28,-114.65 1909.28,-114.65"/>
</g>
<!-- ProfileComponent -->
<g id="node21" class="node">
<title>ProfileComponent</title>
<polygon fill="#ffffb3" stroke="black" points="2416.93,-84.8 2297.07,-84.8 2297.07,-48.8 2416.93,-48.8 2416.93,-84.8"/>
<text text-anchor="middle" x="2357" y="-62.6" font-family="Times,serif" font-size="14.00">ProfileComponent</text>
</g>
<!-- ProfileModule -->
<g id="node22" class="node">
<title>ProfileModule</title>
<polygon fill="#8dd3c7" stroke="black" points="2327.65,-160.8 2324.65,-164.8 2303.65,-164.8 2300.65,-160.8 2230.35,-160.8 2230.35,-124.8 2327.65,-124.8 2327.65,-160.8"/>
<text text-anchor="middle" x="2279" y="-138.6" font-family="Times,serif" font-size="14.00">ProfileModule</text>
</g>
<!-- ProfileComponent&#45;&gt;ProfileModule -->
<g id="edge17" class="edge">
<title>ProfileComponent&#45;&gt;ProfileModule</title>
<path fill="none" stroke="black" d="M2312.55,-84.81C2312.55,-84.81 2312.55,-114.65 2312.55,-114.65"/>
<polygon fill="black" stroke="black" points="2309.05,-114.65 2312.55,-124.65 2316.05,-114.65 2309.05,-114.65"/>
</g>
<!-- ProfileRoutingModule -->
<g id="node23" class="node">
<title>ProfileRoutingModule</title>
<polygon fill="#8dd3c7" stroke="black" points="2273.27,-84.8 2270.27,-88.8 2249.27,-88.8 2246.27,-84.8 2130.73,-84.8 2130.73,-48.8 2273.27,-48.8 2273.27,-84.8"/>
<text text-anchor="middle" x="2202" y="-62.6" font-family="Times,serif" font-size="14.00">ProfileRoutingModule</text>
</g>
<!-- ProfileRoutingModule&#45;&gt;ProfileModule -->
<g id="edge18" class="edge">
<title>ProfileRoutingModule&#45;&gt;ProfileModule</title>
<path fill="none" stroke="black" d="M2251.78,-84.81C2251.78,-84.81 2251.78,-114.65 2251.78,-114.65"/>
<polygon fill="black" stroke="black" points="2248.28,-114.65 2251.78,-124.65 2255.28,-114.65 2248.28,-114.65"/>
</g>
<!-- DatepickerPopupComponent -->
<g id="node24" class="node">
<title>DatepickerPopupComponent</title>
<polygon fill="#ffffb3" stroke="black" points="1201.02,-84.8 1022.98,-84.8 1022.98,-48.8 1201.02,-48.8 1201.02,-84.8"/>
<text text-anchor="middle" x="1112" y="-62.6" font-family="Times,serif" font-size="14.00">DatepickerPopupComponent</text>
</g>
<!-- DatepickerPopupComponent&#45;&gt;SharedModule -->
<g id="edge19" class="edge">
<title>DatepickerPopupComponent&#45;&gt;SharedModule</title>
<path fill="none" stroke="black" d="M1104.86,-84.84C1104.86,-97.36 1104.86,-111.8 1104.86,-111.8 1104.86,-111.8 952.4,-111.8 952.4,-111.8 952.4,-111.8 952.4,-114.77 952.4,-114.77"/>
<polygon fill="black" stroke="black" points="948.9,-114.77 952.4,-124.77 955.9,-114.77 948.9,-114.77"/>
</g>
<!-- InputTextComponent -->
<g id="node25" class="node">
<title>InputTextComponent</title>
<polygon fill="#ffffb3" stroke="black" points="1004.04,-84.8 867.96,-84.8 867.96,-48.8 1004.04,-48.8 1004.04,-84.8"/>
<text text-anchor="middle" x="936" y="-62.6" font-family="Times,serif" font-size="14.00">InputTextComponent</text>
</g>
<!-- InputTextComponent&#45;&gt;SharedModule -->
<g id="edge20" class="edge">
<title>InputTextComponent&#45;&gt;SharedModule</title>
<path fill="none" stroke="black" d="M919.6,-84.81C919.6,-84.81 919.6,-114.65 919.6,-114.65"/>
<polygon fill="black" stroke="black" points="916.1,-114.65 919.6,-124.65 923.1,-114.65 916.1,-114.65"/>
</g>
</g>
</svg>
