<?xml version="1.0" encoding="UTF-8" standalone="no"?>
<!DOCTYPE svg PUBLIC "-//W3C//DTD SVG 1.1//EN"
 "http://www.w3.org/Graphics/SVG/1.1/DTD/svg11.dtd">
<!-- Generated by graphviz version 2.47.3 (20210619.1520)
 -->
<!-- Title: dependencies Pages: 1 -->
<svg width="482pt" height="247pt"
 viewBox="0.00 0.00 482.00 246.80" xmlns="http://www.w3.org/2000/svg" xmlns:xlink="http://www.w3.org/1999/xlink">
<g id="graph0" class="graph" transform="scale(1 1) rotate(0) translate(4 242.8)">
<title>dependencies</title>
<polygon fill="white" stroke="transparent" points="-4,4 -4,-242.8 478,-242.8 478,4 -4,4"/>
<text text-anchor="middle" x="237" y="-8.2" font-family="sans-serif" font-size="14.00">dependencies</text>
<g id="clust1" class="cluster">
<title>cluster_LayoutModule</title>
<polygon fill="none" stroke="black" stroke-dasharray="1,5" points="8,-32.8 8,-230.8 466,-230.8 466,-32.8 8,-32.8"/>
</g>
<g id="clust2" class="cluster">
<title>cluster_LayoutModule_declarations</title>
<polygon fill="none" stroke="black" points="16,-40.8 16,-92.8 458,-92.8 458,-40.8 16,-40.8"/>
</g>
<g id="clust7" class="cluster">
<title>cluster_LayoutModule_exports</title>
<polygon fill="none" stroke="black" points="145,-170.8 145,-222.8 309,-222.8 309,-170.8 145,-170.8"/>
</g>
<!-- FullLayoutComponent -->
<g id="node1" class="node">
<title>FullLayoutComponent</title>
<polygon fill="#ffffb3" stroke="black" points="449.55,-84.8 306.45,-84.8 306.45,-48.8 449.55,-48.8 449.55,-84.8"/>
<text text-anchor="middle" x="378" y="-62.6" font-family="Times,serif" font-size="14.00">FullLayoutComponent</text>
</g>
<!-- LayoutModule -->
<g id="node4" class="node">
<title>LayoutModule</title>
<polygon fill="#8dd3c7" stroke="black" points="276.71,-149.8 273.71,-153.8 252.71,-153.8 249.71,-149.8 177.29,-149.8 177.29,-113.8 276.71,-113.8 276.71,-149.8"/>
<text text-anchor="middle" x="227" y="-127.6" font-family="Times,serif" font-size="14.00">LayoutModule</text>
</g>
<!-- FullLayoutComponent&#45;&gt;LayoutModule -->
<g id="edge1" class="edge">
<title>FullLayoutComponent&#45;&gt;LayoutModule</title>
<path fill="none" stroke="black" d="M378,-84.91C378,-104.14 378,-131.8 378,-131.8 378,-131.8 286.86,-131.8 286.86,-131.8"/>
<polygon fill="black" stroke="black" points="286.86,-128.3 276.86,-131.8 286.86,-135.3 286.86,-128.3"/>
</g>
<!-- HeaderComponent -->
<g id="node2" class="node">
<title>HeaderComponent</title>
<polygon fill="#ffffb3" stroke="black" points="287.74,-84.8 166.26,-84.8 166.26,-48.8 287.74,-48.8 287.74,-84.8"/>
<text text-anchor="middle" x="227" y="-62.6" font-family="Times,serif" font-size="14.00">HeaderComponent</text>
</g>
<!-- HeaderComponent&#45;&gt;LayoutModule -->
<g id="edge2" class="edge">
<title>HeaderComponent&#45;&gt;LayoutModule</title>
<path fill="none" stroke="black" d="M227,-84.91C227,-84.91 227,-103.79 227,-103.79"/>
<polygon fill="black" stroke="black" points="223.5,-103.79 227,-113.79 230.5,-103.79 223.5,-103.79"/>
</g>
<!-- SidebarComponent -->
<g id="node3" class="node">
<title>SidebarComponent</title>
<polygon fill="#ffffb3" stroke="black" points="148.1,-84.8 23.9,-84.8 23.9,-48.8 148.1,-48.8 148.1,-84.8"/>
<text text-anchor="middle" x="86" y="-62.6" font-family="Times,serif" font-size="14.00">SidebarComponent</text>
</g>
<!-- SidebarComponent&#45;&gt;LayoutModule -->
<g id="edge3" class="edge">
<title>SidebarComponent&#45;&gt;LayoutModule</title>
<path fill="none" stroke="black" d="M86,-84.91C86,-104.14 86,-131.8 86,-131.8 86,-131.8 167.29,-131.8 167.29,-131.8"/>
<polygon fill="black" stroke="black" points="167.29,-135.3 177.29,-131.8 167.29,-128.3 167.29,-135.3"/>
</g>
<!-- FullLayoutComponent  -->
<g id="node5" class="node">
<title>FullLayoutComponent </title>
<polygon fill="#fb8072" stroke="black" points="300.55,-214.8 153.45,-214.8 153.45,-178.8 300.55,-178.8 300.55,-214.8"/>
<text text-anchor="middle" x="227" y="-192.6" font-family="Times,serif" font-size="14.00">FullLayoutComponent </text>
</g>
<!-- LayoutModule&#45;&gt;FullLayoutComponent  -->
<g id="edge4" class="edge">
<title>LayoutModule&#45;&gt;FullLayoutComponent </title>
<path fill="none" stroke="black" stroke-dasharray="5,2" d="M227,-149.91C227,-149.91 227,-168.79 227,-168.79"/>
<polygon fill="black" stroke="black" points="223.5,-168.79 227,-178.79 230.5,-168.79 223.5,-168.79"/>
</g>
</g>
</svg>
