<?xml version="1.0" encoding="UTF-8" standalone="no"?>
<!DOCTYPE svg PUBLIC "-//W3C//DTD SVG 1.1//EN"
 "http://www.w3.org/Graphics/SVG/1.1/DTD/svg11.dtd">
<!-- Generated by graphviz version 2.47.3 (20210619.1520)
 -->
<!-- Title: dependencies Pages: 1 -->
<svg width="364pt" height="174pt"
 viewBox="0.00 0.00 364.00 173.80" xmlns="http://www.w3.org/2000/svg" xmlns:xlink="http://www.w3.org/1999/xlink">
<g id="graph0" class="graph" transform="scale(1 1) rotate(0) translate(4 169.8)">
<title>dependencies</title>
<polygon fill="white" stroke="transparent" points="-4,4 -4,-169.8 360,-169.8 360,4 -4,4"/>
<text text-anchor="middle" x="178" y="-8.2" font-family="sans-serif" font-size="14.00">dependencies</text>
<g id="clust1" class="cluster">
<title>cluster_ProductsModule</title>
<polygon fill="none" stroke="black" stroke-dasharray="1,5" points="8,-32.8 8,-157.8 348,-157.8 348,-32.8 8,-32.8"/>
</g>
<g id="clust4" class="cluster">
<title>cluster_ProductsModule_imports</title>
<polygon fill="none" stroke="black" points="170,-40.8 170,-92.8 340,-92.8 340,-40.8 170,-40.8"/>
</g>
<g id="clust2" class="cluster">
<title>cluster_ProductsModule_declarations</title>
<polygon fill="none" stroke="black" points="16,-40.8 16,-92.8 162,-92.8 162,-40.8 16,-40.8"/>
</g>
<!-- ProductsComponent -->
<g id="node1" class="node">
<title>ProductsComponent</title>
<polygon fill="#ffffb3" stroke="black" points="154.33,-84.8 23.67,-84.8 23.67,-48.8 154.33,-48.8 154.33,-84.8"/>
<text text-anchor="middle" x="89" y="-62.6" font-family="Times,serif" font-size="14.00">ProductsComponent</text>
</g>
<!-- ProductsModule -->
<g id="node2" class="node">
<title>ProductsModule</title>
<polygon fill="#8dd3c7" stroke="black" points="226.04,-149.8 223.04,-153.8 202.04,-153.8 199.04,-149.8 117.96,-149.8 117.96,-113.8 226.04,-113.8 226.04,-149.8"/>
<text text-anchor="middle" x="172" y="-127.6" font-family="Times,serif" font-size="14.00">ProductsModule</text>
</g>
<!-- ProductsComponent&#45;&gt;ProductsModule -->
<g id="edge1" class="edge">
<title>ProductsComponent&#45;&gt;ProductsModule</title>
<path fill="none" stroke="black" d="M135.95,-84.91C135.95,-84.91 135.95,-103.79 135.95,-103.79"/>
<polygon fill="black" stroke="black" points="132.45,-103.79 135.95,-113.79 139.45,-103.79 132.45,-103.79"/>
</g>
<!-- ProductsRoutingModule -->
<g id="node3" class="node">
<title>ProductsRoutingModule</title>
<polygon fill="#8dd3c7" stroke="black" points="331.66,-84.8 328.66,-88.8 307.66,-88.8 304.66,-84.8 178.34,-84.8 178.34,-48.8 331.66,-48.8 331.66,-84.8"/>
<text text-anchor="middle" x="255" y="-62.6" font-family="Times,serif" font-size="14.00">ProductsRoutingModule</text>
</g>
<!-- ProductsRoutingModule&#45;&gt;ProductsModule -->
<g id="edge2" class="edge">
<title>ProductsRoutingModule&#45;&gt;ProductsModule</title>
<path fill="none" stroke="black" d="M202.22,-84.91C202.22,-84.91 202.22,-103.79 202.22,-103.79"/>
<polygon fill="black" stroke="black" points="198.72,-103.79 202.22,-113.79 205.72,-103.79 198.72,-103.79"/>
</g>
</g>
</svg>
