<?xml version="1.0" encoding="UTF-8" standalone="no"?>
<!DOCTYPE svg PUBLIC "-//W3C//DTD SVG 1.1//EN"
 "http://www.w3.org/Graphics/SVG/1.1/DTD/svg11.dtd">
<!-- Generated by graphviz version 2.47.3 (20210619.1520)
 -->
<!-- Title: dependencies Pages: 1 -->
<svg width="540pt" height="174pt"
 viewBox="0.00 0.00 540.00 173.80" xmlns="http://www.w3.org/2000/svg" xmlns:xlink="http://www.w3.org/1999/xlink">
<g id="graph0" class="graph" transform="scale(1 1) rotate(0) translate(4 169.8)">
<title>dependencies</title>
<polygon fill="white" stroke="transparent" points="-4,4 -4,-169.8 536,-169.8 536,4 -4,4"/>
<text text-anchor="middle" x="266" y="-8.2" font-family="sans-serif" font-size="14.00">dependencies</text>
<g id="clust1" class="cluster">
<title>cluster_CierrePedidosModule</title>
<polygon fill="none" stroke="black" stroke-dasharray="1,5" points="8,-32.8 8,-157.8 524,-157.8 524,-32.8 8,-32.8"/>
</g>
<g id="clust2" class="cluster">
<title>cluster_CierrePedidosModule_declarations</title>
<polygon fill="none" stroke="black" points="340,-40.8 340,-92.8 516,-92.8 516,-40.8 340,-40.8"/>
</g>
<g id="clust4" class="cluster">
<title>cluster_CierrePedidosModule_imports</title>
<polygon fill="none" stroke="black" points="16,-40.8 16,-92.8 332,-92.8 332,-40.8 16,-40.8"/>
</g>
<!-- CierrePedidosComponent -->
<g id="node1" class="node">
<title>CierrePedidosComponent</title>
<polygon fill="#ffffb3" stroke="black" points="508.14,-84.8 347.86,-84.8 347.86,-48.8 508.14,-48.8 508.14,-84.8"/>
<text text-anchor="middle" x="428" y="-62.6" font-family="Times,serif" font-size="14.00">CierrePedidosComponent</text>
</g>
<!-- CierrePedidosModule -->
<g id="node2" class="node">
<title>CierrePedidosModule</title>
<polygon fill="#8dd3c7" stroke="black" points="301.36,-149.8 298.36,-153.8 277.36,-153.8 274.36,-149.8 162.64,-149.8 162.64,-113.8 301.36,-113.8 301.36,-149.8"/>
<text text-anchor="middle" x="232" y="-127.6" font-family="Times,serif" font-size="14.00">CierrePedidosModule</text>
</g>
<!-- CierrePedidosComponent&#45;&gt;CierrePedidosModule -->
<g id="edge1" class="edge">
<title>CierrePedidosComponent&#45;&gt;CierrePedidosModule</title>
<path fill="none" stroke="black" d="M428,-84.91C428,-104.14 428,-131.8 428,-131.8 428,-131.8 311.38,-131.8 311.38,-131.8"/>
<polygon fill="black" stroke="black" points="311.38,-128.3 301.38,-131.8 311.38,-135.3 311.38,-128.3"/>
</g>
<!-- CierrePedidosRoutingModule -->
<g id="node3" class="node">
<title>CierrePedidosRoutingModule</title>
<polygon fill="#8dd3c7" stroke="black" points="323.98,-84.8 320.98,-88.8 299.98,-88.8 296.98,-84.8 140.02,-84.8 140.02,-48.8 323.98,-48.8 323.98,-84.8"/>
<text text-anchor="middle" x="232" y="-62.6" font-family="Times,serif" font-size="14.00">CierrePedidosRoutingModule</text>
</g>
<!-- CierrePedidosRoutingModule&#45;&gt;CierrePedidosModule -->
<g id="edge2" class="edge">
<title>CierrePedidosRoutingModule&#45;&gt;CierrePedidosModule</title>
<path fill="none" stroke="black" d="M232,-84.91C232,-84.91 232,-103.79 232,-103.79"/>
<polygon fill="black" stroke="black" points="228.5,-103.79 232,-113.79 235.5,-103.79 228.5,-103.79"/>
</g>
<!-- SharedModule -->
<g id="node4" class="node">
<title>SharedModule</title>
<polygon fill="#8dd3c7" stroke="black" points="122.42,-84.8 119.42,-88.8 98.42,-88.8 95.42,-84.8 23.58,-84.8 23.58,-48.8 122.42,-48.8 122.42,-84.8"/>
<text text-anchor="middle" x="73" y="-62.6" font-family="Times,serif" font-size="14.00">SharedModule</text>
</g>
<!-- SharedModule&#45;&gt;CierrePedidosModule -->
<g id="edge3" class="edge">
<title>SharedModule&#45;&gt;CierrePedidosModule</title>
<path fill="none" stroke="black" d="M73,-84.91C73,-104.14 73,-131.8 73,-131.8 73,-131.8 152.26,-131.8 152.26,-131.8"/>
<polygon fill="black" stroke="black" points="152.26,-135.3 162.26,-131.8 152.26,-128.3 152.26,-135.3"/>
</g>
</g>
</svg>
